<?xml version="1.0" encoding="utf-8"?>
<!-- Generator: Adobe Illustrator 16.0.0, SVG Export Plug-In . SVG Version: 6.00 Build 0)  -->
<!DOCTYPE svg PUBLIC "-//W3C//DTD SVG 1.1//EN" "http://www.w3.org/Graphics/SVG/1.1/DTD/svg11.dtd">
<svg version="1.1" id="Layer_1" xmlns="http://www.w3.org/2000/svg" xmlns:xlink="http://www.w3.org/1999/xlink" x="0px" y="0px"
	 width="30px" height="30px" viewBox="0 0 30 30" enable-background="new 0 0 30 30" xml:space="preserve">
<path fill-rule="evenodd" clip-rule="evenodd" d="M18.821,17.14C20.733,18.39,22,20.544,22,23v7c-0.814,0-1.466,0-2,0
	c-3.604,0-1.633,0-5,0c-0.36,0-0.688,0-1,0c-1.893,0-2.969,0-4,0c-0.623,0-1.232,0-2,0v-7c0-2.456,1.267-4.61,3.179-5.86
	C8.121,15.702,6,12.602,6,9c0-4.971,4.029-9,9-9s9,4.029,9,9C24,12.602,21.879,15.702,18.821,17.14z M10,23v5h10v-5
	c0-2.761-2.238-4.999-5-4.999S10,20.239,10,23z M15,1.999c-3.866,0-7,3.135-7,7.001s3.134,6.999,7,6.999S22,12.866,22,9
	S18.866,1.999,15,1.999z"/>
</svg>
